<svg xmlns="http://www.w3.org/2000/svg" xmlns:xlink="http://www.w3.org/1999/xlink" width="500" zoomAndPan="magnify" viewBox="0 0 375 374.999991" height="500" preserveAspectRatio="xMidYMid meet" version="1.0"><defs><clipPath id="821a03445f"><path d="M 242.582031 118.449219 L 324.945312 118.449219 L 324.945312 313.242188 L 242.582031 313.242188 Z M 242.582031 118.449219 " clip-rule="nonzero"/></clipPath><clipPath id="47985cf169"><path d="M 252 49.21875 L 306 49.21875 L 306 153 L 252 153 Z M 252 49.21875 " clip-rule="nonzero"/></clipPath><clipPath id="a230100e59"><path d="M 49.738281 265 L 119 265 L 119 325.96875 L 49.738281 325.96875 Z M 49.738281 265 " clip-rule="nonzero"/></clipPath></defs><path fill="#e2a2ab" d="M 243.152344 214.5 L 309.496094 213.976562 C 312.753906 213.953125 315.394531 211.261719 315.371094 208 L 315.363281 206.859375 C 315.335938 203.597656 312.652344 200.949219 309.390625 200.976562 L 243.050781 201.496094 C 239.792969 201.523438 237.152344 204.214844 237.175781 207.476562 L 237.183594 208.617188 C 237.210938 211.878906 239.894531 214.527344 243.152344 214.5 " fill-opacity="1" fill-rule="nonzero"/><path fill="#3b2b6b" d="M 145.476562 139.175781 L 126.214844 78.296875 L 119.117188 80.550781 L 130.488281 116.488281 L 130.824219 159.519531 L 135.480469 159.484375 L 135.261719 131.570312 L 138.378906 141.429688 L 145.476562 139.175781 " fill-opacity="1" fill-rule="nonzero"/><path fill="#f8babf" d="M 234.414062 169.441406 L 217.445312 174.71875 C 216.402344 175.042969 215.460938 175.632812 214.710938 176.425781 C 213.539062 177.664062 212.917969 179.324219 212.976562 181.027344 L 214.246094 184.980469 L 237.597656 177.417969 L 240.570312 174.769531 L 234.414062 169.441406 " fill-opacity="1" fill-rule="nonzero"/><path fill="#a04063" d="M 172.742188 289.894531 C 168.191406 297.363281 165.121094 301.5625 160.582031 301.726562 L 157.855469 301.832031 C 156.976562 301.828125 156.261719 302.433594 156.207031 303.222656 C 156.152344 304.023438 155.894531 307.144531 156.773438 307.28125 L 166.523438 308.515625 C 169.53125 308.980469 173.320312 306.332031 175.292969 304.289062 L 178.058594 301.417969 L 177.152344 307.683594 C 177.070312 308.234375 177.429688 308.757812 177.96875 308.886719 C 178.558594 309.027344 179.144531 308.65625 179.273438 308.0625 L 182.933594 290.941406 L 172.742188 289.894531 " fill-opacity="1" fill-rule="nonzero"/><path fill="#f8babf" d="M 181.394531 270.691406 L 168.140625 300.246094 C 166.65625 305.769531 183.609375 294.492188 182.851562 289.441406 L 192.664062 274.917969 L 181.394531 270.691406 " fill-opacity="1" fill-rule="nonzero"/><path fill="#af657a" d="M 178.855469 276.355469 L 177.558594 278.945312 C 177.578125 279 177.601562 279.050781 177.621094 279.105469 L 178.855469 276.355469 " fill-opacity="1" fill-rule="nonzero"/><path fill="#dfa7ac" d="M 180.261719 273.542969 L 178.855469 276.355469 L 177.621094 279.105469 C 178.636719 281.617188 180.617188 282.667969 183.289062 282.667969 C 184.566406 282.667969 186.003906 282.429688 187.570312 281.992188 L 191.398438 276.710938 L 180.261719 273.542969 " fill-opacity="1" fill-rule="nonzero"/><path fill="#a04063" d="M 267.371094 176.0625 C 248.785156 176.246094 231.054688 177.503906 217.007812 183.382812 C 193.253906 193.898438 178.207031 263.886719 177.789062 271.761719 C 177.640625 274.585938 200.601562 279.625 201.570312 276.875 L 219.414062 231.949219 L 267.371094 176.0625 " fill-opacity="1" fill-rule="nonzero"/><path fill="#7a70b3" d="M 203.101562 160.679688 L 198.3125 160.71875 L 199.523438 315.140625 L 204.308594 315.101562 L 203.101562 160.679688 " fill-opacity="1" fill-rule="nonzero"/><path fill="#a04063" d="M 220.800781 291.726562 C 221.054688 300.476562 220.769531 305.671875 217.054688 308.292969 L 214.824219 309.867188 C 214.089844 310.34375 213.820312 311.242188 214.203125 311.9375 C 214.59375 312.636719 216.078125 315.390625 216.886719 315.023438 L 225.730469 310.730469 C 228.507812 309.476562 230.238281 305.1875 230.777344 302.398438 L 231.53125 298.480469 L 234.1875 304.226562 C 234.417969 304.730469 235 304.976562 235.527344 304.789062 C 236.097656 304.585938 236.386719 303.949219 236.167969 303.382812 L 229.910156 287.035156 L 220.800781 291.726562 " fill-opacity="1" fill-rule="nonzero"/><path fill="#f8babf" d="M 217.589844 270.90625 L 222.585938 302.917969 C 224.34375 308.359375 232.410156 289.640625 229.023438 285.820312 L 229.335938 268.289062 L 217.589844 270.90625 " fill-opacity="1" fill-rule="nonzero"/><path fill="#af657a" d="M 219.542969 283.410156 L 220.203125 288.113281 C 220.230469 288.128906 220.257812 288.140625 220.28125 288.15625 L 219.542969 283.410156 " fill-opacity="1" fill-rule="nonzero"/><path fill="#dfa7ac" d="M 219.148438 280.617188 L 219.542969 283.410156 L 220.28125 288.15625 C 221.554688 288.878906 222.777344 289.28125 223.941406 289.28125 C 225.8125 289.28125 227.523438 288.242188 229.023438 285.820312 L 229.015625 281.289062 L 228.960938 281.289062 C 227.738281 281.476562 226.535156 281.578125 225.34375 281.578125 C 223.246094 281.578125 221.203125 281.269531 219.214844 280.621094 L 219.148438 280.617188 " fill-opacity="1" fill-rule="nonzero"/><path fill="#b74f71" d="M 307.300781 169.898438 L 305.429688 170.101562 L 272.085938 169.144531 C 272.085938 169.144531 254.148438 174.089844 236.878906 177.910156 C 232.871094 178.800781 229.136719 180.691406 226.105469 183.457031 L 226.046875 183.511719 C 221.882812 187.332031 219.242188 192.066406 217.167969 197.273438 C 217.15625 197.304688 217.140625 197.339844 217.128906 197.371094 C 214.867188 203.066406 213.519531 209.085938 213.082031 215.203125 C 211.109375 242.613281 211.304688 276.796875 212.066406 276.558594 C 220.066406 283.296875 229.308594 282.796875 239.324219 277.75 L 239.058594 210.570312 C 239.046875 207.894531 241.386719 205.820312 244.039062 206.144531 C 263.445312 208.519531 277.324219 207.847656 299.21875 204.0625 C 301.929688 203.59375 304.488281 202.421875 306.542969 200.585938 C 309.535156 197.910156 311.09375 194.316406 310.933594 189.625 C 310.925781 189.339844 310.921875 189.046875 310.929688 188.757812 C 311.214844 180.722656 311.136719 173.488281 307.300781 169.898438 " fill-opacity="1" fill-rule="nonzero"/><path fill="#f8babf" d="M 209.929688 139.867188 L 191.527344 139.617188 C 188.417969 139.574219 185.402344 140.671875 183.046875 142.699219 L 172.191406 152.046875 L 176.1875 151.890625 L 184.425781 148.121094 C 184.816406 147.9375 185.210938 148.363281 185.007812 148.742188 L 183.550781 151.457031 L 186.046875 151.4375 L 190.746094 147.847656 C 192.191406 146.742188 194.003906 146.234375 195.8125 146.417969 L 209.992188 147.871094 L 209.929688 139.867188 " fill-opacity="1" fill-rule="nonzero"/><path fill="#e5e5e5" d="M 307.75 170.355469 C 308.1875 170.832031 308.566406 171.363281 308.902344 171.945312 C 308.640625 171.390625 308.355469 170.863281 308.050781 170.359375 L 307.75 170.355469 " fill-opacity="1" fill-rule="nonzero"/><path fill="#a44765" d="M 271.710938 169.398438 L 265.109375 171.199219 C 280.3125 179.363281 291.554688 183.070312 299.496094 183.070312 C 304.5 183.070312 308.191406 181.601562 310.742188 178.847656 C 310.453125 176.1875 309.820312 173.910156 308.902344 171.945312 C 308.566406 171.363281 308.1875 170.832031 307.75 170.355469 L 271.710938 169.398438 " fill-opacity="1" fill-rule="nonzero"/><path fill="#483e97" d="M 78.300781 167.390625 L 223.949219 166.246094 L 223.863281 155.058594 L 78.214844 156.203125 L 78.300781 167.390625 " fill-opacity="1" fill-rule="nonzero"/><path fill="#7a70b3" d="M 98.773438 166.765625 L 94.117188 166.800781 L 95.285156 315.375 L 99.9375 315.335938 L 98.773438 166.765625 " fill-opacity="1" fill-rule="nonzero"/><path fill="#3b2b6b" d="M 153.144531 155.695312 L 213.171875 155.226562 L 213.125 149.078125 L 153.097656 149.550781 L 153.144531 155.695312 " fill-opacity="1" fill-rule="nonzero"/><path fill="#e2a2ab" d="M 307.390625 109.078125 C 306.238281 141.207031 306.109375 161.234375 306.429688 175.9375 C 306.496094 178.929688 308.511719 181.492188 311.304688 182.128906 C 314.9375 182.960938 318.421875 180.25 318.722656 176.378906 C 321.335938 142.476562 321.066406 114.652344 311.140625 107.1875 C 309.605469 106.035156 307.460938 107.105469 307.390625 109.078125 " fill-opacity="1" fill-rule="nonzero"/><g clip-path="url(#821a03445f)"><path fill="#3b2b6b" d="M 317.464844 121.585938 C 318.070312 168.230469 315.761719 206.332031 302.453125 212.199219 C 302.132812 212.34375 301.785156 212.414062 301.433594 212.417969 L 247.75 212.839844 C 246.308594 212.847656 245.148438 214.03125 245.160156 215.472656 L 245.175781 217.289062 C 245.183594 218.734375 246.363281 219.894531 247.804688 219.882812 L 266.386719 219.734375 C 267.824219 219.726562 269.003906 220.882812 269.015625 222.328125 L 269.582031 294.667969 C 269.59375 296.109375 268.433594 297.289062 266.992188 297.300781 L 248.410156 297.445312 C 246.96875 297.457031 245.8125 298.636719 245.824219 300.078125 L 245.839844 302.226562 C 245.84375 302.613281 245.761719 302.996094 245.601562 303.34375 L 242.828125 309.34375 C 242.023438 311.085938 243.300781 313.070312 245.214844 313.054688 C 246.140625 313.046875 246.996094 312.546875 247.457031 311.738281 L 251.128906 305.300781 C 251.589844 304.496094 252.445312 303.992188 253.371094 303.984375 L 267.628906 303.871094 C 269.070312 303.863281 270.25 305.023438 270.257812 306.46875 L 270.289062 310.058594 C 270.296875 311.5 271.476562 312.660156 272.914062 312.648438 L 272.945312 312.648438 C 274.382812 312.636719 275.542969 311.457031 275.53125 310.015625 L 275.503906 306.425781 C 275.488281 304.980469 276.648438 303.804688 278.089844 303.789062 L 292.082031 303.683594 C 293.011719 303.675781 293.875 304.164062 294.347656 304.960938 L 298.007812 311.152344 C 298.480469 311.953125 299.34375 312.441406 300.273438 312.433594 C 302.1875 312.421875 303.433594 310.414062 302.601562 308.6875 L 300.191406 303.683594 C 300.023438 303.335938 299.9375 302.957031 299.933594 302.570312 L 299.910156 299.652344 C 299.898438 298.210938 298.722656 297.046875 297.28125 297.0625 L 279.242188 297.203125 C 277.800781 297.214844 276.625 296.054688 276.613281 294.609375 L 276.042969 222.273438 C 276.035156 220.828125 277.191406 219.648438 278.632812 219.640625 L 300.230469 219.46875 C 306.851562 219.417969 312.785156 215.378906 315.28125 209.238281 C 321.859375 193.054688 323.929688 159.523438 324.941406 121.925781 C 324.976562 120.589844 324.003906 119.445312 322.683594 119.265625 L 320.421875 118.960938 C 318.84375 118.746094 317.445312 119.988281 317.464844 121.585938 " fill-opacity="1" fill-rule="nonzero"/></g><path fill="#e5e5e5" d="M 240.570312 174.769531 L 237.597656 177.417969 L 237.449219 177.464844 L 237.53125 177.53125 L 240.570312 174.769531 " fill-opacity="1" fill-rule="nonzero"/><path fill="#dfa7ac" d="M 234.414062 169.441406 L 229.683594 171.074219 L 237.449219 177.464844 L 237.597656 177.417969 L 240.570312 174.769531 L 234.414062 169.441406 " fill-opacity="1" fill-rule="nonzero"/><g clip-path="url(#47985cf169)"><path fill="#5c4d9f" d="M 267.226562 108.605469 C 267.582031 105.410156 265.554688 102.496094 263.648438 99.914062 C 259.0625 93.707031 254.484375 87.1875 252.796875 79.652344 C 251.550781 74.066406 251.972656 68.242188 252.722656 62.566406 C 253.066406 59.960938 253.503906 57.289062 254.863281 55.035156 C 257.210938 51.132812 262.007812 49.210938 266.558594 49.277344 C 271.105469 49.34375 275.457031 51.109375 279.511719 53.179688 C 280.671875 53.777344 283.703125 57.03125 284.09375 57.898438 C 285.453125 60.914062 286.828125 63.988281 287.230469 67.273438 C 287.503906 69.46875 287.332031 71.6875 287.40625 73.894531 C 287.78125 85.378906 294.578125 95.476562 300.082031 105.554688 C 302.058594 109.171875 303.910156 112.914062 304.796875 116.941406 C 305.617188 120.671875 305.582031 124.53125 305.542969 128.351562 C 305.472656 135.332031 305.347656 142.570312 302.363281 148.875 C 301.914062 149.824219 301.378906 150.773438 300.535156 151.394531 C 298.890625 152.601562 296.59375 152.242188 294.652344 151.609375 C 288.015625 149.4375 282.289062 144.605469 279.023438 138.425781 C 277.683594 135.886719 276.753906 133.15625 275.828125 130.433594 C 273.679688 124.132812 271.53125 117.828125 269.386719 111.523438 L 267.226562 108.605469 " fill-opacity="1" fill-rule="nonzero"/></g><path fill="#8fa9d7" d="M 206.039062 137.519531 L 206.519531 150.898438 C 226.535156 152.699219 241.527344 154.121094 257.199219 149.875 C 259.996094 147.789062 261.617188 141.839844 262.953125 134.949219 L 263.609375 107.050781 C 256.570312 117.710938 249.203125 130.894531 245.992188 137.457031 L 206.039062 137.519531 " fill-opacity="1" fill-rule="nonzero"/><path fill="#e2a2ab" d="M 269.449219 81.117188 C 269.066406 85.484375 268.859375 89.859375 268.828125 94.242188 C 268.828125 94.535156 268.84375 94.875 269.082031 95.046875 C 269.226562 95.148438 269.414062 95.164062 269.589844 95.171875 C 271.546875 95.265625 273.578125 95.15625 275.347656 94.3125 C 277.117188 93.464844 280.417969 93.5625 280.464844 91.601562 C 280.480469 91.007812 279.042969 87.695312 278.933594 87.109375 C 278.441406 84.511719 277.4375 82.808594 276.945312 80.207031 C 276.753906 79.207031 276.453125 78.054688 275.519531 77.652344 L 269.449219 81.117188 " fill-opacity="1" fill-rule="nonzero"/><path fill="#8fa9d7" d="M 281.769531 90.390625 C 281.769531 90.390625 265.964844 94.460938 266.078125 95.296875 C 266.726562 100.121094 267.078125 106.5 266.4375 105.140625 C 272.582031 103.359375 278.574219 100.289062 284.335938 95.152344 C 283.871094 92.988281 283.074219 91.3125 281.769531 90.390625 " fill-opacity="1" fill-rule="nonzero"/><path fill="#6b88b2" d="M 267.917969 99.515625 C 264.652344 101.691406 262.410156 105.433594 261.390625 111.074219 C 259.003906 144.90625 265.445312 157.347656 271.839844 169.898438 C 273.6875 168.003906 311.3125 186.503906 308.050781 170.359375 C 302.730469 163.03125 298.152344 154.476562 294.667969 144.109375 C 293.957031 141.996094 293.527344 139.800781 293.382812 137.578125 L 291.046875 103.148438 C 290.972656 100.46875 287.925781 96.757812 284.335938 95.152344 L 267.917969 99.515625 " fill-opacity="1" fill-rule="nonzero"/><path fill="#8fa9d7" d="M 278.546875 109.457031 C 282.90625 109.433594 284.851562 111.902344 285.339844 115.875 C 287.230469 135.640625 286.609375 150.75 283.164062 160.632812 C 275.238281 165.773438 257.847656 170.964844 241.710938 176.152344 C 237.808594 174.253906 234.84375 171.863281 233.507812 168.617188 L 233.203125 165.808594 C 246.246094 159.300781 259.390625 152.695312 268.472656 150.054688 C 267.855469 137.628906 267.941406 125.28125 270.152344 113.179688 C 271.371094 110.671875 274.109375 109.210938 278.546875 109.457031 " fill-opacity="1" fill-rule="nonzero"/><path fill="#53458f" d="M 277.648438 82.554688 L 277.578125 82.605469 C 277.730469 83.070312 277.890625 83.523438 278.050781 83.976562 Z M 268.945312 89.082031 L 268.734375 92.316406 C 268.773438 92.316406 268.8125 92.3125 268.851562 92.3125 C 268.875 91.234375 268.902344 90.160156 268.945312 89.082031 " fill-opacity="1" fill-rule="nonzero"/><path fill="#cb919a" d="M 277.578125 82.605469 L 268.957031 88.875 L 268.945312 89.082031 C 268.902344 90.160156 268.875 91.234375 268.851562 92.3125 C 272.539062 92.128906 275.949219 90.632812 278.933594 87.109375 L 278.050781 83.976562 C 277.890625 83.523438 277.730469 83.070312 277.578125 82.605469 " fill-opacity="1" fill-rule="nonzero"/><path fill="#f8babf" d="M 257.507812 59.921875 C 260.09375 63.996094 254.988281 69.316406 255.546875 74.109375 C 256.011719 78.101562 257.398438 82.105469 260.148438 85.035156 C 262.898438 87.960938 267.160156 89.636719 271.046875 88.628906 C 273.582031 87.972656 275.808594 86.199219 277.019531 83.871094 C 278.015625 81.945312 278.402344 79.605469 280.019531 78.164062 C 280.707031 77.546875 281.566406 77.152344 282.277344 76.566406 C 283.757812 75.339844 284.40625 72.929688 283.179688 71.449219 C 281.996094 70.019531 279.835938 70.09375 277.984375 70.175781 C 275.617188 70.277344 273.230469 70.1875 270.914062 69.707031 C 265.390625 68.5625 260.53125 64.691406 257.507812 59.921875 " fill-opacity="1" fill-rule="nonzero"/><path fill="#dd9ba1" d="M 261.414062 69.347656 C 263.011719 77.070312 263.957031 79.703125 262.445312 79.886719 L 259.269531 79.714844 C 258.753906 79.6875 258.480469 79.09375 258.796875 78.6875 C 260.8125 76.113281 261.417969 75.347656 261.414062 69.347656 " fill-opacity="1" fill-rule="nonzero"/><path fill="#dfa7ac" d="M 201.0625 139.78125 L 201.027344 146.910156 L 206.367188 147.335938 L 206.121094 139.835938 L 201.0625 139.78125 " fill-opacity="1" fill-rule="nonzero"/><path fill="#a04063" d="M 97.285156 300.363281 L 71.722656 300.363281 L 71.722656 243.246094 L 97.285156 243.246094 L 97.285156 300.363281 " fill-opacity="1" fill-rule="nonzero"/><path fill="#b74f71" d="M 99.972656 300.8125 L 70.507812 306.746094 L 60.042969 254.609375 L 89.511719 248.675781 L 99.972656 300.8125 " fill-opacity="1" fill-rule="nonzero"/><path fill="#ce5f87" d="M 103.296875 310.964844 L 69.847656 306.78125 L 76.664062 252.058594 L 110.113281 256.238281 L 103.296875 310.964844 " fill-opacity="1" fill-rule="nonzero"/><g clip-path="url(#a230100e59)"><path fill="#8fa9d7" d="M 118.324219 265.160156 L 49.777344 265.160156 L 49.777344 276.765625 L 60.179688 276.765625 L 65.867188 325.96875 L 104.808594 325.691406 L 109.945312 276.765625 L 118.324219 276.765625 L 118.324219 265.160156 " fill-opacity="1" fill-rule="nonzero"/></g></svg>